<mxfile host="app.diagrams.net" modified="2022-04-09T15:57:10.171Z" agent="5.0 (Macintosh; Intel Mac OS X 10_15_7) AppleWebKit/537.36 (KHTML, like Gecko) Chrome/100.0.4896.75 Safari/537.36" etag="McNtZ4ONFQvIdnJ-OnII" version="14.9.9" type="github">
  <diagram id="B94iIyrBxkbssp-TuIm3" name="Page-1">
    <mxGraphModel dx="946" dy="614" grid="1" gridSize="10" guides="1" tooltips="1" connect="1" arrows="1" fold="1" page="1" pageScale="1" pageWidth="827" pageHeight="1169" math="0" shadow="0">
      <root>
        <mxCell id="0" />
        <mxCell id="1" parent="0" />
        <mxCell id="ZnkIq9cweOyvzbWh76kK-16" value="" style="rounded=0;whiteSpace=wrap;html=1;" vertex="1" parent="1">
          <mxGeometry x="127.5" y="130" width="515" height="400" as="geometry" />
        </mxCell>
        <mxCell id="ZnkIq9cweOyvzbWh76kK-8" value="" style="rounded=0;whiteSpace=wrap;html=1;" vertex="1" parent="1">
          <mxGeometry x="195" y="210" width="370" height="300" as="geometry" />
        </mxCell>
        <mxCell id="ZnkIq9cweOyvzbWh76kK-13" value="" style="rounded=0;whiteSpace=wrap;html=1;" vertex="1" parent="1">
          <mxGeometry x="250" y="420" width="260" height="80" as="geometry" />
        </mxCell>
        <mxCell id="ZnkIq9cweOyvzbWh76kK-1" value="存储" style="rounded=0;whiteSpace=wrap;html=1;" vertex="1" parent="1">
          <mxGeometry x="280" y="460" width="90" height="30" as="geometry" />
        </mxCell>
        <mxCell id="ZnkIq9cweOyvzbWh76kK-2" value="内存" style="rounded=0;whiteSpace=wrap;html=1;" vertex="1" parent="1">
          <mxGeometry x="390" y="460" width="90" height="30" as="geometry" />
        </mxCell>
        <mxCell id="ZnkIq9cweOyvzbWh76kK-14" style="edgeStyle=orthogonalEdgeStyle;rounded=0;orthogonalLoop=1;jettySize=auto;html=1;exitX=0.5;exitY=1;exitDx=0;exitDy=0;entryX=0.5;entryY=0;entryDx=0;entryDy=0;" edge="1" parent="1" source="ZnkIq9cweOyvzbWh76kK-3" target="ZnkIq9cweOyvzbWh76kK-13">
          <mxGeometry relative="1" as="geometry" />
        </mxCell>
        <mxCell id="ZnkIq9cweOyvzbWh76kK-3" value="堆栈&lt;br&gt;" style="rounded=0;whiteSpace=wrap;html=1;" vertex="1" parent="1">
          <mxGeometry x="320" y="330" width="120" height="60" as="geometry" />
        </mxCell>
        <mxCell id="ZnkIq9cweOyvzbWh76kK-7" style="edgeStyle=orthogonalEdgeStyle;rounded=0;orthogonalLoop=1;jettySize=auto;html=1;exitX=1;exitY=0.5;exitDx=0;exitDy=0;entryX=0;entryY=0.5;entryDx=0;entryDy=0;" edge="1" parent="1" source="ZnkIq9cweOyvzbWh76kK-4" target="ZnkIq9cweOyvzbWh76kK-6">
          <mxGeometry relative="1" as="geometry" />
        </mxCell>
        <mxCell id="ZnkIq9cweOyvzbWh76kK-12" style="edgeStyle=orthogonalEdgeStyle;rounded=0;orthogonalLoop=1;jettySize=auto;html=1;exitX=0.5;exitY=1;exitDx=0;exitDy=0;" edge="1" parent="1" source="ZnkIq9cweOyvzbWh76kK-4" target="ZnkIq9cweOyvzbWh76kK-3">
          <mxGeometry relative="1" as="geometry" />
        </mxCell>
        <mxCell id="ZnkIq9cweOyvzbWh76kK-4" value="指令" style="rounded=0;whiteSpace=wrap;html=1;" vertex="1" parent="1">
          <mxGeometry x="320" y="272" width="120" height="30" as="geometry" />
        </mxCell>
        <mxCell id="ZnkIq9cweOyvzbWh76kK-6" value="Gas" style="rounded=1;whiteSpace=wrap;html=1;" vertex="1" parent="1">
          <mxGeometry x="580" y="274.5" width="50" height="25" as="geometry" />
        </mxCell>
        <mxCell id="ZnkIq9cweOyvzbWh76kK-9" value="EVM虚拟机" style="text;html=1;strokeColor=none;fillColor=none;align=center;verticalAlign=middle;whiteSpace=wrap;rounded=0;" vertex="1" parent="1">
          <mxGeometry x="200" y="210" width="70" height="20" as="geometry" />
        </mxCell>
        <mxCell id="ZnkIq9cweOyvzbWh76kK-11" style="edgeStyle=orthogonalEdgeStyle;rounded=0;orthogonalLoop=1;jettySize=auto;html=1;exitX=0.5;exitY=1;exitDx=0;exitDy=0;entryX=0.5;entryY=0;entryDx=0;entryDy=0;" edge="1" parent="1" source="ZnkIq9cweOyvzbWh76kK-10" target="ZnkIq9cweOyvzbWh76kK-4">
          <mxGeometry relative="1" as="geometry" />
        </mxCell>
        <mxCell id="ZnkIq9cweOyvzbWh76kK-10" value="code" style="rounded=1;whiteSpace=wrap;html=1;" vertex="1" parent="1">
          <mxGeometry x="320" y="220" width="120" height="30" as="geometry" />
        </mxCell>
        <mxCell id="ZnkIq9cweOyvzbWh76kK-15" value="地址 + 状态" style="text;html=1;strokeColor=none;fillColor=none;align=center;verticalAlign=middle;whiteSpace=wrap;rounded=0;" vertex="1" parent="1">
          <mxGeometry x="330" y="420" width="100" height="20" as="geometry" />
        </mxCell>
        <mxCell id="ZnkIq9cweOyvzbWh76kK-17" value="Node节点" style="text;html=1;strokeColor=none;fillColor=none;align=center;verticalAlign=middle;whiteSpace=wrap;rounded=0;" vertex="1" parent="1">
          <mxGeometry x="127.5" y="130" width="67.5" height="20" as="geometry" />
        </mxCell>
        <mxCell id="ZnkIq9cweOyvzbWh76kK-18" value="linux / window / macos" style="rounded=0;whiteSpace=wrap;html=1;" vertex="1" parent="1">
          <mxGeometry x="127.5" y="530" width="515" height="40" as="geometry" />
        </mxCell>
      </root>
    </mxGraphModel>
  </diagram>
</mxfile>
